# xmcd
#
# Track frame offsets: 
#        150
#        16502
#        29592
#        52730
#        66955
#        81422
#        95777
#        110090
#        127612
#        147390
#        165370
#        179405
#        193312
#
# Disc length: 2753 seconds
#
# Revision: 2
# Processed by: cddbd v1.4PL0 Copyright (c) Steve Scherf et al.
# Submitted via: ExactAudioCopy v0.90b4
#
DISCID=af0abf0d
DTITLE=Eric Heatherly - Sometimes It's Just Your Time
DYEAR=2003
DGENRE=Country
TTITLE0=Let 'em Roll (Featuring Carl Perkins)
TTITLE1=Urge To Run
TTITLE2=One Bad Tattoo
TTITLE3=The Last Man Committed
TTITLE4=Nobody Slow Dances Anymore
TTITLE5=Built For Love
TTITLE6=Tryin' To Forget What I Don't Know
TTITLE7=Indian Summer
TTITLE8=Sometimes It's Just Your Time
TTITLE9=When A Heart Begins To Drift
TTITLE10=I Know You're In There Somewhere
TTITLE11=Can't Even Do Wrong Right
TTITLE12=Shake The Ache
EXTD=
EXTT0=
EXTT1=
EXTT2=
EXTT3=
EXTT4=
EXTT5=
EXTT6=
EXTT7=
EXTT8=
EXTT9=
EXTT10=
EXTT11=
EXTT12=
PLAYORDER=
